<?xml version="1.0" standalone="no"?>
<!DOCTYPE svg PUBLIC "-//W3C//DTD SVG 20010904//EN"
 "http://www.w3.org/TR/2001/REC-SVG-20010904/DTD/svg10.dtd">
<svg version="1.0" xmlns="http://www.w3.org/2000/svg"
 width="1024.000000pt" height="1536.000000pt" viewBox="0 0 1024.000000 1536.000000"
 preserveAspectRatio="xMidYMid meet">

<g transform="translate(0.000000,1536.000000) scale(0.100000,-0.100000)"
fill="#000000" stroke="none">
<path d="M1692 10989 c-26 -13 -55 -39 -70 -62 l-27 -41 -3 -521 -3 -521 24
-44 c33 -63 85 -92 155 -87 56 4 91 23 126 71 20 27 21 41 24 462 l3 434 430
0 c343 0 436 3 462 14 103 44 133 179 59 260 -53 57 -46 56 -614 56 -515 0
-524 0 -566 -21z"/>
<path d="M7430 10999 c-61 -24 -100 -85 -100 -154 0 -57 19 -96 67 -132 l36
-28 443 -3 443 -3 3 -434 c3 -420 4 -434 24 -461 40 -54 70 -69 138 -69 53 0
68 4 98 27 70 53 68 38 68 607 0 438 -2 517 -15 548 -21 50 -42 72 -90 94 -37
17 -76 19 -565 18 -324 0 -535 -4 -550 -10z"/>
<path d="M2526 10235 c-57 -20 -87 -45 -121 -100 l-30 -48 0 -2241 0 -2241 22
-40 c25 -47 64 -85 113 -111 34 -18 92 -19 1464 -22 994 -1 1433 1 1441 8 10
9 -1 29 -50 95 -35 46 -82 115 -105 154 l-42 71 -1259 0 -1259 0 0 48 c1 47 2
49 353 484 194 240 541 673 772 961 231 289 422 526 425 526 3 0 113 -124 245
-276 173 -199 249 -280 274 -290 42 -18 119 -13 153 9 13 9 151 181 308 384
156 203 388 504 515 669 127 165 248 321 267 347 l36 47 157 -200 c147 -187
159 -200 183 -194 66 16 140 26 243 33 l112 7 -286 366 c-157 201 -300 378
-316 392 -42 35 -104 43 -159 22 -47 -19 -45 -16 -765 -956 l-388 -507 -43 47
c-23 25 -132 149 -241 274 -109 126 -211 235 -226 243 -44 22 -130 18 -168 -8
-18 -13 -132 -149 -254 -304 -462 -585 -1182 -1483 -1190 -1483 -4 -1 -6 790
-5 1757 l3 1757 2413 3 2412 2 0 -900 0 -899 71 -41 c39 -23 109 -71 156 -106
63 -48 89 -62 97 -54 8 8 11 315 11 1083 l0 1072 -24 48 c-25 52 -71 92 -128
113 -58 20 -5130 20 -5187 -1z"/>
<path d="M3638 9474 c-276 -66 -455 -362 -383 -633 47 -178 199 -329 380 -377
76 -21 211 -18 288 6 209 65 357 271 357 497 0 140 -54 266 -158 370 -128 128
-310 180 -484 137z"/>
<path d="M6465 8054 c-251 -46 -457 -138 -649 -288 -260 -203 -471 -541 -542
-866 -28 -130 -26 -457 4 -597 110 -509 463 -912 951 -1087 287 -103 641 -108
931 -15 140 46 291 121 396 199 l51 38 379 -380 c250 -251 393 -386 419 -399
134 -63 267 41 241 188 -7 33 -54 85 -397 429 l-390 391 65 97 c194 285 276
567 263 896 -9 212 -48 376 -132 556 -196 420 -566 716 -1034 826 -116 27
-438 34 -556 12z m441 -329 c419 -74 762 -370 893 -773 43 -131 54 -220 48
-389 -10 -299 -111 -534 -322 -748 -211 -214 -457 -327 -745 -342 -325 -16
-609 91 -849 322 -455 439 -467 1151 -26 1601 217 220 499 341 806 343 59 1
146 -6 195 -14z"/>
<path d="M1721 5960 c-48 -11 -83 -40 -108 -90 -23 -44 -23 -45 -23 -550 0
-470 2 -508 19 -545 21 -46 54 -79 94 -94 19 -7 206 -11 553 -11 574 0 566 -1
617 59 69 83 50 193 -44 250 -33 20 -46 21 -471 21 l-438 0 0 415 c0 452 0
455 -56 506 -26 24 -48 34 -94 44 -8 1 -30 -1 -49 -5z"/>
</g>
</svg>
