<?xml version="1.0" encoding="UTF-8"?>
<svg id="Layer_1" data-name="Layer 1" xmlns="http://www.w3.org/2000/svg" viewBox="0 0 350.03 348.56">
  <defs>
    <style>
      .cls-1 {
        stroke-width: 0px;
      }

      .cls-2 {
        fill: #fff;
        font-family: ArialRoundedMTBold, 'Arial Rounded MT Bold';
        font-size: 100px;
      }
    </style>
  </defs>
  <path class="cls-1" d="m348.24,122.26c-4.17-11.02-13.7-17.01-27.16-17.01-23.27,0-46.54,0-69.82,0L198.46,13.75c-10.58-18.34-37.05-18.34-47.64,0l-52.8,91.5c-23.04,0-46.08,0-69.12,0-1.12,0-2.25.02-3.36.1C10.3,106.4.03,117.25.02,132.55-.01,195.4.01,258.25,0,321.1c0,2.89.31,5.72,1.13,8.48,3.57,12.05,13.59,18.97,27.61,18.97,48.76.02,97.52,0,146.28,0,48.38,0,96.77,0,145.15,0,1.49,0,2.99,0,4.48-.12,15.07-1.12,25.3-11.9,25.31-27,.06-62.98.04-125.95.05-188.93,0-3.52-.53-6.95-1.78-10.25Zm-324.8-6.11c1.97-.27,3.97-.38,5.96-.38,20.85,0,41.7,0,62.55,0l-1.89,3.27c-10.58,18.33,2.65,41.25,23.82,41.25h121.51c21.17,0,34.4-22.91,23.82-41.25l-1.89-3.28c21.17,0,42.35,0,63.52,0,3,0,5.95.15,8.83,1.19,2.63.95,2.85,1.84.77,3.94-13.04,13.23-25.95,26.6-38.91,39.91-35.32,36.27-70.65,72.53-105.97,108.8-.7.71-1.39,1.43-2.1,2.14-5.53,5.46-11.51,5.47-17-.14-13-13.28-25.93-26.62-38.89-39.93-35.76-36.72-71.52-73.43-107.27-110.15-.86-.89-1.69-1.8-2.59-2.76,1.62-1.73,3.64-2.33,5.72-2.61Zm-11.77,211.2c-1.05-1.96-1.17-3.87-1.17-5.81,0-62.97,0-125.94,0-188.91,0-1.62-.02-3.25.96-5.12,17.84,18.31,35.41,36.34,52.97,54.37,15.31,15.72,30.59,31.47,45.95,47.14,1.61,1.64,1.92,2.5.03,4.31-32.43,30.85-64.78,61.78-97.16,92.69-.43.41-.92.77-1.59,1.33Zm314.83,10.31c-2.1.24-4.22.38-6.34.38-96.89.02-193.78.02-290.67.01-3.74,0-7.48,0-11.18-2.37,14.02-13.39,27.73-26.46,41.42-39.54,19.21-18.34,38.43-36.67,57.57-55.08,1.88-1.81,2.83-2.14,4.86-.01,11.87,12.45,23.95,24.7,35.94,37.05,10.8,11.13,22.93,11.14,33.82-.02,12.01-12.32,24.05-24.61,35.98-37.01,1.67-1.74,2.53-2.25,4.58-.29,32.66,31.33,65.42,62.57,98.14,93.83.26.25.46.57.88,1.09-1.48,1.25-3.21,1.75-5,1.96Zm11.96-10.07c-9.82-9.38-19.26-18.4-28.71-27.42-23.26-22.21-46.53-44.42-69.79-66.62-1.34-1.28-2.81-2-.6-4.26,32.88-33.59,65.63-67.29,98.42-100.97.16-.17.39-.27.59-.41,1.53,3.11,1.78,193.53.09,199.68Z"/>
  <text class="cls-2" transform="translate(157.55 126.27)"><tspan x="0" y="0">!</tspan></text>
</svg>