<?xml version="1.0" standalone="no"?>
<!DOCTYPE svg PUBLIC "-//W3C//DTD SVG 20010904//EN"
 "http://www.w3.org/TR/2001/REC-SVG-20010904/DTD/svg10.dtd">
<svg version="1.0" xmlns="http://www.w3.org/2000/svg"
 width="1024.000000pt" height="1536.000000pt" viewBox="0 0 1024.000000 1536.000000"
 preserveAspectRatio="xMidYMid meet">

<g transform="translate(0.000000,1536.000000) scale(0.100000,-0.100000)"
fill="#000000" stroke="none">
<path d="M8730 10321 l-262 -270 -102 54 c-896 478 -2050 318 -2781 -387 -361
-347 -587 -759 -685 -1246 -102 -508 -45 -983 178 -1479 327 -730 1015 -1247
1822 -1369 159 -25 491 -25 655 -1 521 76 959 290 1334 652 582 561 834 1355
691 2171 -50 282 -183 627 -333 860 l-45 71 264 264 264 264 -42 6 c-24 4
-138 10 -254 14 -116 4 -216 10 -222 14 -7 4 20 33 63 71 101 87 108 118 39
161 -46 28 -65 22 -148 -50 -68 -59 -86 -66 -86 -33 1 32 -73 487 -80 495 -4
4 -125 -113 -270 -262z m-1272 -501 c127 -14 323 -62 437 -106 164 -65 377
-190 489 -286 l38 -33 -184 -189 -184 -190 -65 46 c-376 267 -876 314 -1298
122 -246 -113 -485 -345 -611 -593 -182 -362 -182 -818 1 -1183 152 -304 439
-548 766 -652 180 -56 433 -73 619 -41 182 32 388 121 533 230 41 31 77 53 81
48 3 -4 85 -93 180 -197 l174 -189 -34 -29 c-80 -68 -232 -166 -345 -223 -598
-303 -1318 -248 -1875 143 -124 87 -355 317 -443 442 -135 192 -248 461 -297
706 -28 138 -38 436 -21 581 61 500 320 941 730 1247 197 147 437 259 666 312
180 41 443 55 643 34z m1129 -572 c257 -269 430 -654 474 -1060 14 -126 6
-358 -17 -488 -58 -337 -216 -670 -436 -921 l-47 -54 -190 189 -189 189 59 74
c275 346 360 815 223 1231 -43 128 -120 273 -210 392 l-84 111 182 190 c101
104 185 189 188 189 3 0 24 -19 47 -42z m-1190 -523 c69 -16 177 -62 223 -95
l30 -21 -167 -174 -167 -174 -61 6 c-154 14 -278 -91 -292 -247 -10 -106 49
-215 141 -262 61 -31 160 -36 218 -10 41 18 46 18 55 3 6 -10 75 -88 153 -175
l143 -159 -24 -18 c-45 -36 -164 -89 -243 -109 -161 -41 -333 -21 -491 55
-162 79 -257 173 -339 336 -150 297 -68 680 192 894 135 112 279 164 457 164
63 1 136 -6 172 -14z m424 -288 c58 -77 90 -141 120 -237 30 -96 33 -279 6
-380 -27 -102 -92 -222 -155 -290 l-57 -60 -177 152 -176 153 33 35 c85 89
101 238 34 330 l-18 25 167 168 c92 92 169 167 172 167 3 0 26 -29 51 -63z"/>
<path d="M4748 10516 c-118 -43 -175 -145 -147 -258 8 -29 14 -56 14 -60 0 -4
-86 -94 -190 -200 -105 -106 -292 -298 -417 -426 l-228 -232 -45 10 c-94 21
-197 -29 -236 -114 -20 -45 -25 -120 -9 -160 8 -22 2 -31 -68 -99 -42 -41
-127 -120 -189 -176 l-111 -103 -90 -2 -90 -2 -168 121 -169 121 -6 70 c-8 98
-39 149 -115 188 -87 43 -175 28 -245 -43 -66 -65 -84 -141 -55 -223 l13 -36
-368 -368 -368 -368 -60 3 c-87 3 -142 -31 -176 -111 -20 -49 -19 -84 4 -134
58 -128 236 -139 306 -19 24 41 27 54 23 109 l-6 64 367 366 367 367 47 -12
c56 -14 105 -8 159 21 l40 21 175 -123 175 -123 2 -52 c3 -112 106 -179 211
-138 66 25 98 72 103 150 l4 63 190 173 c117 107 196 173 206 171 121 -22 190
-6 246 59 53 62 67 157 34 222 -7 14 65 93 414 450 249 254 429 431 438 429
106 -21 162 -9 226 50 134 123 57 342 -128 363 -25 3 -59 -1 -80 -9z"/>
<path d="M661 9954 l-21 -27 0 -2888 0 -2888 23 -27 c18 -20 33 -27 63 -28 21
0 1890 1 4152 2 4097 2 4112 2 4132 22 27 27 25 56 -6 87 l-26 26 -1704 -5
-1704 -4 0 817 c0 747 -1 818 -17 830 -13 11 -89 15 -374 17 -349 3 -359 2
-379 -18 -20 -20 -20 -27 -20 -830 l0 -810 -159 0 -160 0 -1 2092 c-1 1840 -2
2095 -16 2115 l-15 23 -377 -2 -376 -3 -13 -25 c-10 -20 -13 -450 -13 -2111
l0 -2086 -115 -7 c-64 -4 -120 -4 -125 -1 -7 4 -10 632 -10 1754 0 1707 0
1749 -19 1772 l-19 24 -357 0 c-355 0 -357 0 -375 -22 -16 -21 -17 -111 -19
-1769 -1 -961 -3 -1750 -6 -1752 -2 -3 -56 -7 -120 -10 l-115 -5 0 1450 0
1450 -21 27 -20 26 -349 0 c-328 0 -349 -1 -371 -19 l-24 -19 -3 -1450 -2
-1449 -302 -6 c-166 -4 -348 -7 -405 -7 l-103 0 0 2854 0 2853 -21 27 c-12 15
-30 26 -44 26 -14 0 -32 -11 -44 -26z"/>
</g>
</svg>
